<?xml version="1.0" encoding="utf-8"?>
<!-- Generator: Adobe Illustrator 22.1.0, SVG Export Plug-In . SVG Version: 6.00 Build 0)  -->
<svg version="1.1" id="Layer_1" xmlns="http://www.w3.org/2000/svg" xmlns:xlink="http://www.w3.org/1999/xlink" x="0px" y="0px"
	 viewBox="0 0 50 50" style="enable-background:new 0 0 50 50;" xml:space="preserve">
<style type="text/css">
	.st0{fill:#FFFFFF;}
</style>
<path class="st0" d="M19,13h30c0.6,0,1-0.5,1-1.2c0-0.7-0.4-1.2-1-1.2H19c-0.6,0-1,0.5-1,1.2C18,12.5,18.4,13,19,13z"/>
<path class="st0" d="M19,39.4h30c0.6,0,1-0.5,1-1.2c0-0.7-0.4-1.2-1-1.2H19c-0.6,0-1,0.5-1,1.2C18,38.8,18.4,39.4,19,39.4z"/>
<path class="st0" d="M19,26.2h30c0.6,0,1-0.5,1-1.2s-0.4-1.2-1-1.2H19c-0.6,0-1,0.5-1,1.2S18.4,26.2,19,26.2z"/>
</svg>
